<?xml version='1.0' encoding='ascii'?><svg xmlns="http://www.w3.org/2000/svg" xmlns:inkscape="http://www.inkscape.org/namespaces/inkscape" version="1.1" viewBox="0 0 290 300"><path d="M 128,159 131,114 182,128 Z" fill="#151736" fill-opacity="1.00" shape-rendering="crispEdges"/><path d="M 60,60 66,72 68,61 Z" fill="#5E403E" fill-opacity="1.00" shape-rendering="crispEdges"/><path d="M 0,175 0,200 16,189 Z" fill="#DBD6D0" fill-opacity="1.00" shape-rendering="crispEdges"/><path d="M 40,143 43,144 50,119 Z" fill="#4B424F" fill-opacity="1.00" shape-rendering="crispEdges"/><path d="M 131,20 144,0 164,15 Z" fill="#C0B4A8" fill-opacity="1.00" shape-rendering="crispEdges"/><path d="M 78,72 88,67 103,73 Z" fill="#463943" fill-opacity="1.00" shape-rendering="crispEdges"/><path d="M 231,81 235,93 239,89 Z" fill="#56464D" fill-opacity="1.00" shape-rendering="crispEdges"/><path d="M 197,60 211,69 214,54 Z" fill="#7E6C6C" fill-opacity="1.00" shape-rendering="crispEdges"/><path d="M 231,111 256,136 265,110 Z" fill="#151631" fill-opacity="1.00" shape-rendering="crispEdges"/><path d="M 79,60 89,53 104,58 Z" fill="#816F6A" fill-opacity="1.00" shape-rendering="crispEdges"/><path d="M 8,17 20,52 52,28 Z" fill="#E1D8CC" fill-opacity="1.00" shape-rendering="crispEdges"/><path d="M 153,51 160,62 186,47 Z" fill="#8D706D" fill-opacity="1.00" shape-rendering="crispEdges"/><path d="M 152,75 160,62 165,68 Z" fill="#422C35" fill-opacity="1.00" shape-rendering="crispEdges"/><path d="M 185,80 206,76 207,95 Z" fill="#201F2E" fill-opacity="1.00" shape-rendering="crispEdges"/><path d="M 12,200 14,201 16,189 Z" fill="#747277" fill-opacity="1.00" shape-rendering="crispEdges"/><path d="M 264,70 269,39 275,57 Z" fill="#7B5051" fill-opacity="1.00" shape-rendering="crispEdges"/><path d="M 269,39 275,57 290,60 Z" fill="#784442" fill-opacity="1.00" shape-rendering="crispEdges"/><path d="M 278,25 290,0 290,31 Z" fill="#A16F5C" fill-opacity="1.00" shape-rendering="crispEdges"/><path d="M 206,76 207,95 218,86 Z" fill="#2B2939" fill-opacity="1.00" shape-rendering="crispEdges"/><path d="M 108,40 111,25 122,22 Z" fill="#A17C66" fill-opacity="1.00" shape-rendering="crispEdges"/><path d="M 252,38 258,12 278,25 Z" fill="#9B7165" fill-opacity="1.00" shape-rendering="crispEdges"/><path d="M 0,300 51,244 83,300 Z" fill="#121233" fill-opacity="1.00" shape-rendering="crispEdges"/><path d="M 88,67 104,58 107,66 Z" fill="#69585C" fill-opacity="1.00" shape-rendering="crispEdges"/><path d="M 186,47 209,40 214,54 Z" fill="#95817F" fill-opacity="1.00" shape-rendering="crispEdges"/><path d="M 43,144 53,120 65,122 Z" fill="#191222" fill-opacity="1.00" shape-rendering="crispEdges"/><path d="M 12,119 24,152 32,109 Z" fill="#D5C6B7" fill-opacity="1.00" shape-rendering="crispEdges"/><path d="M 84,93 105,113 110,94 Z" fill="#1E213A" fill-opacity="1.00" shape-rendering="crispEdges"/><path d="M 126,0 131,20 144,0 Z" fill="#BAA28F" fill-opacity="1.00" shape-rendering="crispEdges"/><path d="M 182,128 191,96 206,125 Z" fill="#192040" fill-opacity="1.00" shape-rendering="crispEdges"/><path d="M 78,72 84,93 103,73 Z" fill="#292531" fill-opacity="1.00" shape-rendering="crispEdges"/><path d="M 61,52 69,57 70,40 Z" fill="#DBD4CB" fill-opacity="1.00" shape-rendering="crispEdges"/><path d="M 14,201 16,189 18,187 Z" fill="#534E5D" fill-opacity="1.00" shape-rendering="crispEdges"/><path d="M 68,61 79,60 88,67 Z" fill="#77605D" fill-opacity="1.00" shape-rendering="crispEdges"/><path d="M 27,202 51,244 78,192 Z" fill="#141231" fill-opacity="1.00" shape-rendering="crispEdges"/><path d="M 0,41 0,97 14,77 Z" fill="#E3D9D1" fill-opacity="1.00" shape-rendering="crispEdges"/><path d="M 12,119 14,77 32,109 Z" fill="#DCCEC2" fill-opacity="1.00" shape-rendering="crispEdges"/><path d="M 242,50 252,38 264,70 Z" fill="#8C6F70" fill-opacity="1.00" shape-rendering="crispEdges"/><path d="M 0,211 12,200 16,189 Z" fill="#A9A6A4" fill-opacity="1.00" shape-rendering="crispEdges"/><path d="M 218,86 231,81 235,93 Z" fill="#2B2430" fill-opacity="1.00" shape-rendering="crispEdges"/><path d="M 35,170 36,162 52,165 Z" fill="#1A1628" fill-opacity="1.00" shape-rendering="crispEdges"/><path d="M 32,109 41,101 49,84 Z" fill="#B2A99F" fill-opacity="1.00" shape-rendering="crispEdges"/><path d="M 53,107 53,120 65,122 Z" fill="#1C1628" fill-opacity="1.00" shape-rendering="crispEdges"/><path d="M 83,300 122,234 149,300 Z" fill="#121234" fill-opacity="1.00" shape-rendering="crispEdges"/><path d="M 14,201 18,187 27,202 Z" fill="#1E1625" fill-opacity="1.00" shape-rendering="crispEdges"/><path d="M 108,40 122,22 128,33 Z" fill="#A78572" fill-opacity="1.00" shape-rendering="crispEdges"/><path d="M 146,69 152,75 160,62 Z" fill="#614549" fill-opacity="1.00" shape-rendering="crispEdges"/><path d="M 0,175 10,179 14,174 Z" fill="#BFAEA8" fill-opacity="1.00" shape-rendering="crispEdges"/><path d="M 34,133 40,131 50,119 Z" fill="#938881" fill-opacity="1.00" shape-rendering="crispEdges"/><path d="M 24,152 34,133 40,143 Z" fill="#AEA69E" fill-opacity="1.00" shape-rendering="crispEdges"/><path d="M 66,77 66,90 78,72 Z" fill="#231D29" fill-opacity="1.00" shape-rendering="crispEdges"/><path d="M 103,73 113,76 126,66 Z" fill="#443842" fill-opacity="1.00" shape-rendering="crispEdges"/><path d="M 49,84 49,88 63,73 Z" fill="#BBB4A9" fill-opacity="1.00" shape-rendering="crispEdges"/><path d="M 152,75 165,68 172,83 Z" fill="#2D232D" fill-opacity="1.00" shape-rendering="crispEdges"/><path d="M 45,103 51,110 53,107 Z" fill="#372D3D" fill-opacity="1.00" shape-rendering="crispEdges"/><path d="M 207,95 218,86 231,111 Z" fill="#1E2338" fill-opacity="1.00" shape-rendering="crispEdges"/><path d="M 104,58 126,66 133,50 Z" fill="#8D7979" fill-opacity="1.00" shape-rendering="crispEdges"/><path d="M 144,0 164,15 177,0 Z" fill="#B9ACA4" fill-opacity="1.00" shape-rendering="crispEdges"/><path d="M 80,35 89,42 89,53 Z" fill="#A99387" fill-opacity="1.00" shape-rendering="crispEdges"/><path d="M 153,51 177,29 186,47 Z" fill="#9C817C" fill-opacity="1.00" shape-rendering="crispEdges"/><path d="M 22,178 32,170 35,170 Z" fill="#585559" fill-opacity="1.00" shape-rendering="crispEdges"/><path d="M 0,97 0,140 12,119 Z" fill="#E1D4C8" fill-opacity="1.00" shape-rendering="crispEdges"/><path d="M 27,153 40,143 43,144 Z" fill="#5A4F50" fill-opacity="1.00" shape-rendering="crispEdges"/><path d="M 31,158 35,170 36,162 Z" fill="#514F5E" fill-opacity="1.00" shape-rendering="crispEdges"/><path d="M 182,128 187,190 216,146 Z" fill="#141536" fill-opacity="1.00" shape-rendering="crispEdges"/><path d="M 45,103 49,88 56,89 Z" fill="#35272D" fill-opacity="1.00" shape-rendering="crispEdges"/><path d="M 14,77 45,51 49,84 Z" fill="#DCCFC1" fill-opacity="1.00" shape-rendering="crispEdges"/><path d="M 21,175 22,178 32,170 Z" fill="#827872" fill-opacity="1.00" shape-rendering="crispEdges"/><path d="M 165,68 172,83 181,63 Z" fill="#3F303D" fill-opacity="1.00" shape-rendering="crispEdges"/><path d="M 10,179 14,174 21,175 Z" fill="#836C63" fill-opacity="1.00" shape-rendering="crispEdges"/><path d="M 197,25 209,40 230,25 Z" fill="#B0A098" fill-opacity="1.00" shape-rendering="crispEdges"/><path d="M 126,66 133,50 153,51 Z" fill="#907A7B" fill-opacity="1.00" shape-rendering="crispEdges"/><path d="M 0,215 12,200 14,201 Z" fill="#42393C" fill-opacity="1.00" shape-rendering="crispEdges"/><path d="M 110,94 131,114 141,90 Z" fill="#1F2541" fill-opacity="1.00" shape-rendering="crispEdges"/><path d="M 256,136 290,110 290,161 Z" fill="#141435" fill-opacity="1.00" shape-rendering="crispEdges"/><path d="M 45,51 56,61 61,52 Z" fill="#CCBDAE" fill-opacity="1.00" shape-rendering="crispEdges"/><path d="M 126,66 146,69 160,62 Z" fill="#735959" fill-opacity="1.00" shape-rendering="crispEdges"/><path d="M 58,84 63,73 66,72 Z" fill="#8B8482" fill-opacity="1.00" shape-rendering="crispEdges"/><path d="M 245,182 290,161 290,218 Z" fill="#121335" fill-opacity="1.00" shape-rendering="crispEdges"/><path d="M 66,90 78,72 84,93 Z" fill="#201F30" fill-opacity="1.00" shape-rendering="crispEdges"/><path d="M 181,63 188,66 197,60 Z" fill="#674E4C" fill-opacity="1.00" shape-rendering="crispEdges"/><path d="M 122,234 128,159 187,190 Z" fill="#121334" fill-opacity="1.00" shape-rendering="crispEdges"/><path d="M 0,41 8,17 20,52 Z" fill="#DBCDC0" fill-opacity="1.00" shape-rendering="crispEdges"/><path d="M 8,17 39,0 52,28 Z" fill="#DCD0C3" fill-opacity="1.00" shape-rendering="crispEdges"/><path d="M 264,70 270,80 271,71 Z" fill="#523940" fill-opacity="1.00" shape-rendering="crispEdges"/><path d="M 89,42 108,40 111,25 Z" fill="#9E806C" fill-opacity="1.00" shape-rendering="crispEdges"/><path d="M 52,28 70,40 77,10 Z" fill="#DDD4C6" fill-opacity="1.00" shape-rendering="crispEdges"/><path d="M 126,66 146,69 152,75 Z" fill="#533E44" fill-opacity="1.00" shape-rendering="crispEdges"/><path d="M 245,182 256,136 290,161 Z" fill="#121334" fill-opacity="1.00" shape-rendering="crispEdges"/><path d="M 185,80 188,66 206,76 Z" fill="#2A222E" fill-opacity="1.00" shape-rendering="crispEdges"/><path d="M 51,244 83,300 122,234 Z" fill="#121234" fill-opacity="1.00" shape-rendering="crispEdges"/><path d="M 181,63 186,47 197,60 Z" fill="#7C5C5A" fill-opacity="1.00" shape-rendering="crispEdges"/><path d="M 56,61 60,60 61,52 Z" fill="#C2B1AA" fill-opacity="1.00" shape-rendering="crispEdges"/><path d="M 93,0 102,21 114,0 Z" fill="#BEA692" fill-opacity="1.00" shape-rendering="crispEdges"/><path d="M 88,67 103,73 107,66 Z" fill="#4F424B" fill-opacity="1.00" shape-rendering="crispEdges"/><path d="M 231,81 243,79 252,88 Z" fill="#7A6768" fill-opacity="1.00" shape-rendering="crispEdges"/><path d="M 172,83 181,63 185,80 Z" fill="#261F2C" fill-opacity="1.00" shape-rendering="crispEdges"/><path d="M 172,83 185,80 191,96 Z" fill="#1E2033" fill-opacity="1.00" shape-rendering="crispEdges"/><path d="M 66,72 66,77 78,72 Z" fill="#2E252A" fill-opacity="1.00" shape-rendering="crispEdges"/><path d="M 0,239 27,202 51,244 Z" fill="#14122F" fill-opacity="1.00" shape-rendering="crispEdges"/><path d="M 218,86 231,111 235,93 Z" fill="#18192C" fill-opacity="1.00" shape-rendering="crispEdges"/><path d="M 102,21 111,25 114,0 Z" fill="#B29A86" fill-opacity="1.00" shape-rendering="crispEdges"/><path d="M 214,54 228,69 242,50 Z" fill="#978489" fill-opacity="1.00" shape-rendering="crispEdges"/><path d="M 45,103 53,107 56,89 Z" fill="#1E1521" fill-opacity="1.00" shape-rendering="crispEdges"/><path d="M 149,300 180,252 212,300 Z" fill="#121236" fill-opacity="1.00" shape-rendering="crispEdges"/><path d="M 51,110 53,107 53,120 Z" fill="#3A3745" fill-opacity="1.00" shape-rendering="crispEdges"/><path d="M 0,239 0,300 51,244 Z" fill="#131232" fill-opacity="1.00" shape-rendering="crispEdges"/><path d="M 53,107 56,89 66,90 Z" fill="#1E1B29" fill-opacity="1.00" shape-rendering="crispEdges"/><path d="M 52,28 67,0 77,10 Z" fill="#DED5C8" fill-opacity="1.00" shape-rendering="crispEdges"/><path d="M 68,61 69,57 89,53 Z" fill="#B8ACA1" fill-opacity="1.00" shape-rendering="crispEdges"/><path d="M 52,165 65,122 85,148 Z" fill="#161430" fill-opacity="1.00" shape-rendering="crispEdges"/><path d="M 216,146 231,111 256,136 Z" fill="#141534" fill-opacity="1.00" shape-rendering="crispEdges"/><path d="M 10,179 18,187 22,178 Z" fill="#25181E" fill-opacity="1.00" shape-rendering="crispEdges"/><path d="M 180,252 212,300 234,240 Z" fill="#121336" fill-opacity="1.00" shape-rendering="crispEdges"/><path d="M 230,25 249,0 258,12 Z" fill="#AF8C82" fill-opacity="1.00" shape-rendering="crispEdges"/><path d="M 40,109 45,103 49,88 Z" fill="#5C5052" fill-opacity="1.00" shape-rendering="crispEdges"/><path d="M 103,73 107,66 126,66 Z" fill="#5E5055" fill-opacity="1.00" shape-rendering="crispEdges"/><path d="M 58,84 66,72 66,77 Z" fill="#6E6465" fill-opacity="1.00" shape-rendering="crispEdges"/><path d="M 191,96 206,125 207,95 Z" fill="#1F2A46" fill-opacity="1.00" shape-rendering="crispEdges"/><path d="M 24,152 24,159 31,158 Z" fill="#A9A7A9" fill-opacity="1.00" shape-rendering="crispEdges"/><path d="M 66,72 68,61 78,72 Z" fill="#392628" fill-opacity="1.00" shape-rendering="crispEdges"/><path d="M 187,190 234,240 245,182 Z" fill="#121335" fill-opacity="1.00" shape-rendering="crispEdges"/><path d="M 228,69 231,81 243,79 Z" fill="#8B8089" fill-opacity="1.00" shape-rendering="crispEdges"/><path d="M 24,152 27,153 31,158 Z" fill="#6E6569" fill-opacity="1.00" shape-rendering="crispEdges"/><path d="M 0,215 14,201 27,202 Z" fill="#1C131F" fill-opacity="1.00" shape-rendering="crispEdges"/><path d="M 259,95 264,70 270,80 Z" fill="#6E555A" fill-opacity="1.00" shape-rendering="crispEdges"/><path d="M 0,97 12,119 14,77 Z" fill="#E3D6CB" fill-opacity="1.00" shape-rendering="crispEdges"/><path d="M 69,57 80,35 89,53 Z" fill="#B8A99E" fill-opacity="1.00" shape-rendering="crispEdges"/><path d="M 84,93 103,73 110,94 Z" fill="#1E1E30" fill-opacity="1.00" shape-rendering="crispEdges"/><path d="M 259,95 265,110 268,92 Z" fill="#262938" fill-opacity="1.00" shape-rendering="crispEdges"/><path d="M 269,39 278,25 290,31 Z" fill="#89544C" fill-opacity="1.00" shape-rendering="crispEdges"/><path d="M 164,15 177,0 197,25 Z" fill="#B9A598" fill-opacity="1.00" shape-rendering="crispEdges"/><path d="M 104,58 107,66 126,66 Z" fill="#7B6C6D" fill-opacity="1.00" shape-rendering="crispEdges"/><path d="M 259,95 268,92 270,80 Z" fill="#534650" fill-opacity="1.00" shape-rendering="crispEdges"/><path d="M 122,234 149,300 180,252 Z" fill="#121235" fill-opacity="1.00" shape-rendering="crispEdges"/><path d="M 18,187 22,178 35,170 Z" fill="#2A1E24" fill-opacity="1.00" shape-rendering="crispEdges"/><path d="M 20,52 45,51 52,28 Z" fill="#DBD2C6" fill-opacity="1.00" shape-rendering="crispEdges"/><path d="M 181,63 185,80 188,66 Z" fill="#43363F" fill-opacity="1.00" shape-rendering="crispEdges"/><path d="M 122,22 126,0 131,20 Z" fill="#AF9179" fill-opacity="1.00" shape-rendering="crispEdges"/><path d="M 164,15 177,29 197,25 Z" fill="#B19B8E" fill-opacity="1.00" shape-rendering="crispEdges"/><path d="M 79,60 88,67 104,58 Z" fill="#715E5C" fill-opacity="1.00" shape-rendering="crispEdges"/><path d="M 235,93 259,95 265,110 Z" fill="#2B2635" fill-opacity="1.00" shape-rendering="crispEdges"/><path d="M 206,125 216,146 231,111 Z" fill="#171A3A" fill-opacity="1.00" shape-rendering="crispEdges"/><path d="M 234,240 245,182 290,218 Z" fill="#121235" fill-opacity="1.00" shape-rendering="crispEdges"/><path d="M 89,42 89,53 104,58 Z" fill="#8F7B72" fill-opacity="1.00" shape-rendering="crispEdges"/><path d="M 53,107 65,122 66,90 Z" fill="#1D1B31" fill-opacity="1.00" shape-rendering="crispEdges"/><path d="M 133,50 153,51 155,36 Z" fill="#A08C87" fill-opacity="1.00" shape-rendering="crispEdges"/><path d="M 155,36 164,15 177,29 Z" fill="#AF988F" fill-opacity="1.00" shape-rendering="crispEdges"/><path d="M 41,101 49,84 49,88 Z" fill="#928981" fill-opacity="1.00" shape-rendering="crispEdges"/><path d="M 269,39 290,31 290,60 Z" fill="#712F2C" fill-opacity="1.00" shape-rendering="crispEdges"/><path d="M 230,25 242,50 252,38 Z" fill="#9D827E" fill-opacity="1.00" shape-rendering="crispEdges"/><path d="M 56,61 60,60 63,73 Z" fill="#AFA29D" fill-opacity="1.00" shape-rendering="crispEdges"/><path d="M 206,125 207,95 231,111 Z" fill="#191E3C" fill-opacity="1.00" shape-rendering="crispEdges"/><path d="M 182,128 206,125 216,146 Z" fill="#151839" fill-opacity="1.00" shape-rendering="crispEdges"/><path d="M 0,160 0,175 14,174 Z" fill="#D3C1B4" fill-opacity="1.00" shape-rendering="crispEdges"/><path d="M 49,88 58,84 63,73 Z" fill="#A49D97" fill-opacity="1.00" shape-rendering="crispEdges"/><path d="M 206,76 218,86 231,81 Z" fill="#433D4C" fill-opacity="1.00" shape-rendering="crispEdges"/><path d="M 186,47 197,60 214,54 Z" fill="#896E6B" fill-opacity="1.00" shape-rendering="crispEdges"/><path d="M 60,60 63,73 66,72 Z" fill="#807372" fill-opacity="1.00" shape-rendering="crispEdges"/><path d="M 128,159 182,128 187,190 Z" fill="#131434" fill-opacity="1.00" shape-rendering="crispEdges"/><path d="M 209,40 230,25 242,50 Z" fill="#A5908C" fill-opacity="1.00" shape-rendering="crispEdges"/><path d="M 103,73 110,94 113,76 Z" fill="#332D3A" fill-opacity="1.00" shape-rendering="crispEdges"/><path d="M 45,51 49,84 56,61 Z" fill="#D7C9B7" fill-opacity="1.00" shape-rendering="crispEdges"/><path d="M 39,0 52,28 67,0 Z" fill="#E1D8CB" fill-opacity="1.00" shape-rendering="crispEdges"/><path d="M 45,103 50,119 53,120 Z" fill="#77747A" fill-opacity="1.00" shape-rendering="crispEdges"/><path d="M 242,50 243,79 264,70 Z" fill="#917D81" fill-opacity="1.00" shape-rendering="crispEdges"/><path d="M 131,114 141,90 168,100 Z" fill="#1F2543" fill-opacity="1.00" shape-rendering="crispEdges"/><path d="M 34,133 40,131 40,143 Z" fill="#99928B" fill-opacity="1.00" shape-rendering="crispEdges"/><path d="M 24,152 27,153 40,143 Z" fill="#8A7A75" fill-opacity="1.00" shape-rendering="crispEdges"/><path d="M 177,29 197,25 209,40 Z" fill="#AE9C93" fill-opacity="1.00" shape-rendering="crispEdges"/><path d="M 14,77 20,52 45,51 Z" fill="#DED3C5" fill-opacity="1.00" shape-rendering="crispEdges"/><path d="M 229,0 230,25 249,0 Z" fill="#B59A90" fill-opacity="1.00" shape-rendering="crispEdges"/><path d="M 34,133 40,109 50,119 Z" fill="#A19386" fill-opacity="1.00" shape-rendering="crispEdges"/><path d="M 275,57 279,65 290,60 Z" fill="#7F5654" fill-opacity="1.00" shape-rendering="crispEdges"/><path d="M 264,70 271,71 279,65 Z" fill="#604043" fill-opacity="1.00" shape-rendering="crispEdges"/><path d="M 269,0 278,25 290,0 Z" fill="#A8755F" fill-opacity="1.00" shape-rendering="crispEdges"/><path d="M 14,174 21,175 31,158 Z" fill="#BDB7AD" fill-opacity="1.00" shape-rendering="crispEdges"/><path d="M 77,10 80,35 93,0 Z" fill="#CABCAB" fill-opacity="1.00" shape-rendering="crispEdges"/><path d="M 49,88 56,89 58,84 Z" fill="#746D6B" fill-opacity="1.00" shape-rendering="crispEdges"/><path d="M 80,35 89,42 102,21 Z" fill="#B7A290" fill-opacity="1.00" shape-rendering="crispEdges"/><path d="M 40,109 45,103 50,119 Z" fill="#8C8582" fill-opacity="1.00" shape-rendering="crispEdges"/><path d="M 0,0 8,17 39,0 Z" fill="#DED5C8" fill-opacity="1.00" shape-rendering="crispEdges"/><path d="M 65,122 66,90 84,93 Z" fill="#21233E" fill-opacity="1.00" shape-rendering="crispEdges"/><path d="M 271,71 279,65 290,72 Z" fill="#402D33" fill-opacity="1.00" shape-rendering="crispEdges"/><path d="M 27,153 36,162 43,144 Z" fill="#22171E" fill-opacity="1.00" shape-rendering="crispEdges"/><path d="M 235,93 239,89 259,95 Z" fill="#47343D" fill-opacity="1.00" shape-rendering="crispEdges"/><path d="M 105,113 110,94 131,114 Z" fill="#1D2441" fill-opacity="1.00" shape-rendering="crispEdges"/><path d="M 180,252 187,190 234,240 Z" fill="#121235" fill-opacity="1.00" shape-rendering="crispEdges"/><path d="M 80,35 93,0 102,21 Z" fill="#C5B4A3" fill-opacity="1.00" shape-rendering="crispEdges"/><path d="M 131,20 155,36 164,15 Z" fill="#B9AAA1" fill-opacity="1.00" shape-rendering="crispEdges"/><path d="M 268,92 270,80 290,72 Z" fill="#1F1C2C" fill-opacity="1.00" shape-rendering="crispEdges"/><path d="M 264,70 275,57 279,65 Z" fill="#6F4543" fill-opacity="1.00" shape-rendering="crispEdges"/><path d="M 265,110 268,92 290,110 Z" fill="#1E2339" fill-opacity="1.00" shape-rendering="crispEdges"/><path d="M 114,0 122,22 126,0 Z" fill="#A88368" fill-opacity="1.00" shape-rendering="crispEdges"/><path d="M 0,211 0,215 12,200 Z" fill="#6C6768" fill-opacity="1.00" shape-rendering="crispEdges"/><path d="M 78,192 85,148 128,159 Z" fill="#141332" fill-opacity="1.00" shape-rendering="crispEdges"/><path d="M 239,89 252,88 259,95 Z" fill="#634A4E" fill-opacity="1.00" shape-rendering="crispEdges"/><path d="M 27,202 35,170 52,165 Z" fill="#171226" fill-opacity="1.00" shape-rendering="crispEdges"/><path d="M 206,76 211,69 219,68 Z" fill="#524755" fill-opacity="1.00" shape-rendering="crispEdges"/><path d="M 56,89 66,77 66,90 Z" fill="#221B24" fill-opacity="1.00" shape-rendering="crispEdges"/><path d="M 197,25 229,0 230,25 Z" fill="#BAA8A2" fill-opacity="1.00" shape-rendering="crispEdges"/><path d="M 70,40 77,10 80,35 Z" fill="#D6CBC2" fill-opacity="1.00" shape-rendering="crispEdges"/><path d="M 60,60 68,61 69,57 Z" fill="#9E8171" fill-opacity="1.00" shape-rendering="crispEdges"/><path d="M 256,136 265,110 290,110 Z" fill="#141531" fill-opacity="1.00" shape-rendering="crispEdges"/><path d="M 141,90 168,100 172,83 Z" fill="#22243A" fill-opacity="1.00" shape-rendering="crispEdges"/><path d="M 219,68 228,69 231,81 Z" fill="#695860" fill-opacity="1.00" shape-rendering="crispEdges"/><path d="M 160,62 181,63 186,47 Z" fill="#816665" fill-opacity="1.00" shape-rendering="crispEdges"/><path d="M 252,88 259,95 264,70 Z" fill="#786267" fill-opacity="1.00" shape-rendering="crispEdges"/><path d="M 197,60 206,76 211,69 Z" fill="#66545A" fill-opacity="1.00" shape-rendering="crispEdges"/><path d="M 122,22 128,33 131,20 Z" fill="#B29886" fill-opacity="1.00" shape-rendering="crispEdges"/><path d="M 18,187 27,202 35,170 Z" fill="#181021" fill-opacity="1.00" shape-rendering="crispEdges"/><path d="M 268,92 290,72 290,110 Z" fill="#18182F" fill-opacity="1.00" shape-rendering="crispEdges"/><path d="M 85,148 105,113 128,159 Z" fill="#161635" fill-opacity="1.00" shape-rendering="crispEdges"/><path d="M 68,61 78,72 88,67 Z" fill="#4F393B" fill-opacity="1.00" shape-rendering="crispEdges"/><path d="M 0,140 12,119 24,152 Z" fill="#D9CBBF" fill-opacity="1.00" shape-rendering="crispEdges"/><path d="M 49,84 56,61 63,73 Z" fill="#CDC4B9" fill-opacity="1.00" shape-rendering="crispEdges"/><path d="M 128,33 131,20 155,36 Z" fill="#B8A89D" fill-opacity="1.00" shape-rendering="crispEdges"/><path d="M 36,162 43,144 52,165 Z" fill="#161022" fill-opacity="1.00" shape-rendering="crispEdges"/><path d="M 10,179 21,175 22,178 Z" fill="#452924" fill-opacity="1.00" shape-rendering="crispEdges"/><path d="M 52,165 78,192 85,148 Z" fill="#141330" fill-opacity="1.00" shape-rendering="crispEdges"/><path d="M 10,179 16,189 18,187 Z" fill="#807B86" fill-opacity="1.00" shape-rendering="crispEdges"/><path d="M 168,100 172,83 191,96 Z" fill="#242940" fill-opacity="1.00" shape-rendering="crispEdges"/><path d="M 279,65 290,60 290,72 Z" fill="#5B3F42" fill-opacity="1.00" shape-rendering="crispEdges"/><path d="M 111,25 114,0 122,22 Z" fill="#A5806C" fill-opacity="1.00" shape-rendering="crispEdges"/><path d="M 110,94 113,76 141,90 Z" fill="#202031" fill-opacity="1.00" shape-rendering="crispEdges"/><path d="M 0,140 0,160 24,152 Z" fill="#D7C7B9" fill-opacity="1.00" shape-rendering="crispEdges"/><path d="M 141,90 152,75 172,83 Z" fill="#221F30" fill-opacity="1.00" shape-rendering="crispEdges"/><path d="M 65,122 85,148 105,113 Z" fill="#181735" fill-opacity="1.00" shape-rendering="crispEdges"/><path d="M 45,51 52,28 70,40 Z" fill="#D5C5B4" fill-opacity="1.00" shape-rendering="crispEdges"/><path d="M 113,76 141,90 152,75 Z" fill="#262030" fill-opacity="1.00" shape-rendering="crispEdges"/><path d="M 252,38 269,39 278,25 Z" fill="#90665B" fill-opacity="1.00" shape-rendering="crispEdges"/><path d="M 40,131 40,143 50,119 Z" fill="#776F73" fill-opacity="1.00" shape-rendering="crispEdges"/><path d="M 177,0 197,25 229,0 Z" fill="#C3B2A7" fill-opacity="1.00" shape-rendering="crispEdges"/><path d="M 209,40 214,54 242,50 Z" fill="#9C8582" fill-opacity="1.00" shape-rendering="crispEdges"/><path d="M 113,76 126,66 152,75 Z" fill="#3D303C" fill-opacity="1.00" shape-rendering="crispEdges"/><path d="M 32,109 34,133 40,109 Z" fill="#B6A394" fill-opacity="1.00" shape-rendering="crispEdges"/><path d="M 0,175 10,179 16,189 Z" fill="#C0B9BB" fill-opacity="1.00" shape-rendering="crispEdges"/><path d="M 105,113 128,159 131,114 Z" fill="#181C3C" fill-opacity="1.00" shape-rendering="crispEdges"/><path d="M 122,234 180,252 187,190 Z" fill="#121235" fill-opacity="1.00" shape-rendering="crispEdges"/><path d="M 14,77 32,109 49,84 Z" fill="#D2C3B5" fill-opacity="1.00" shape-rendering="crispEdges"/><path d="M 0,0 0,41 8,17 Z" fill="#D8CBB9" fill-opacity="1.00" shape-rendering="crispEdges"/><path d="M 27,202 52,165 78,192 Z" fill="#15132E" fill-opacity="1.00" shape-rendering="crispEdges"/><path d="M 0,200 0,211 16,189 Z" fill="#C3BFB9" fill-opacity="1.00" shape-rendering="crispEdges"/><path d="M 252,38 264,70 269,39 Z" fill="#845D5C" fill-opacity="1.00" shape-rendering="crispEdges"/><path d="M 128,33 133,50 155,36 Z" fill="#AD9C96" fill-opacity="1.00" shape-rendering="crispEdges"/><path d="M 126,66 153,51 160,62 Z" fill="#846A69" fill-opacity="1.00" shape-rendering="crispEdges"/><path d="M 108,40 128,33 133,50 Z" fill="#A9948A" fill-opacity="1.00" shape-rendering="crispEdges"/><path d="M 89,42 102,21 111,25 Z" fill="#AF9784" fill-opacity="1.00" shape-rendering="crispEdges"/><path d="M 270,80 271,71 290,72 Z" fill="#251D2C" fill-opacity="1.00" shape-rendering="crispEdges"/><path d="M 168,100 182,128 191,96 Z" fill="#202A47" fill-opacity="1.00" shape-rendering="crispEdges"/><path d="M 27,153 31,158 36,162 Z" fill="#473E4A" fill-opacity="1.00" shape-rendering="crispEdges"/><path d="M 212,300 234,240 290,300 Z" fill="#111236" fill-opacity="1.00" shape-rendering="crispEdges"/><path d="M 65,122 84,93 105,113 Z" fill="#1B1F3C" fill-opacity="1.00" shape-rendering="crispEdges"/><path d="M 45,51 61,52 70,40 Z" fill="#CBBAA8" fill-opacity="1.00" shape-rendering="crispEdges"/><path d="M 51,244 78,192 122,234 Z" fill="#121232" fill-opacity="1.00" shape-rendering="crispEdges"/><path d="M 234,240 290,218 290,300 Z" fill="#121236" fill-opacity="1.00" shape-rendering="crispEdges"/><path d="M 230,25 252,38 258,12 Z" fill="#A3847F" fill-opacity="1.00" shape-rendering="crispEdges"/><path d="M 160,62 165,68 181,63 Z" fill="#62494C" fill-opacity="1.00" shape-rendering="crispEdges"/><path d="M 185,80 191,96 207,95 Z" fill="#202338" fill-opacity="1.00" shape-rendering="crispEdges"/><path d="M 211,69 214,54 219,68 Z" fill="#635051" fill-opacity="1.00" shape-rendering="crispEdges"/><path d="M 78,192 122,234 128,159 Z" fill="#131232" fill-opacity="1.00" shape-rendering="crispEdges"/><path d="M 60,60 61,52 69,57 Z" fill="#C0AC9C" fill-opacity="1.00" shape-rendering="crispEdges"/><path d="M 258,12 269,0 278,25 Z" fill="#A5715C" fill-opacity="1.00" shape-rendering="crispEdges"/><path d="M 67,0 77,10 93,0 Z" fill="#CEC0AF" fill-opacity="1.00" shape-rendering="crispEdges"/><path d="M 69,57 70,40 80,35 Z" fill="#CFC6BB" fill-opacity="1.00" shape-rendering="crispEdges"/><path d="M 24,152 32,109 34,133 Z" fill="#C8BAAE" fill-opacity="1.00" shape-rendering="crispEdges"/><path d="M 214,54 219,68 228,69 Z" fill="#827074" fill-opacity="1.00" shape-rendering="crispEdges"/><path d="M 0,215 0,239 27,202 Z" fill="#171121" fill-opacity="1.00" shape-rendering="crispEdges"/><path d="M 68,61 79,60 89,53 Z" fill="#A79B93" fill-opacity="1.00" shape-rendering="crispEdges"/><path d="M 56,89 58,84 66,77 Z" fill="#483E43" fill-opacity="1.00" shape-rendering="crispEdges"/><path d="M 14,174 24,159 31,158 Z" fill="#CBC4BC" fill-opacity="1.00" shape-rendering="crispEdges"/><path d="M 104,58 108,40 133,50 Z" fill="#9C8882" fill-opacity="1.00" shape-rendering="crispEdges"/><path d="M 249,0 258,12 269,0 Z" fill="#B2816F" fill-opacity="1.00" shape-rendering="crispEdges"/><path d="M 45,103 51,110 53,120 Z" fill="#625E67" fill-opacity="1.00" shape-rendering="crispEdges"/><path d="M 177,29 186,47 209,40 Z" fill="#A08982" fill-opacity="1.00" shape-rendering="crispEdges"/><path d="M 43,144 52,165 65,122 Z" fill="#171328" fill-opacity="1.00" shape-rendering="crispEdges"/><path d="M 0,160 14,174 24,159 Z" fill="#D9CDC2" fill-opacity="1.00" shape-rendering="crispEdges"/><path d="M 243,79 252,88 264,70 Z" fill="#877279" fill-opacity="1.00" shape-rendering="crispEdges"/><path d="M 231,81 239,89 252,88 Z" fill="#6C585A" fill-opacity="1.00" shape-rendering="crispEdges"/><path d="M 231,111 235,93 265,110 Z" fill="#1A1C30" fill-opacity="1.00" shape-rendering="crispEdges"/><path d="M 153,51 155,36 177,29 Z" fill="#A68E87" fill-opacity="1.00" shape-rendering="crispEdges"/><path d="M 131,114 168,100 182,128 Z" fill="#191C3C" fill-opacity="1.00" shape-rendering="crispEdges"/><path d="M 0,41 14,77 20,52 Z" fill="#DED6CE" fill-opacity="1.00" shape-rendering="crispEdges"/><path d="M 89,42 104,58 108,40 Z" fill="#967C6B" fill-opacity="1.00" shape-rendering="crispEdges"/><path d="M 206,76 219,68 231,81 Z" fill="#504754" fill-opacity="1.00" shape-rendering="crispEdges"/><path d="M 0,160 24,152 24,159 Z" fill="#DBD3CB" fill-opacity="1.00" shape-rendering="crispEdges"/><path d="M 228,69 242,50 243,79 Z" fill="#968487" fill-opacity="1.00" shape-rendering="crispEdges"/><path d="M 187,190 216,146 245,182 Z" fill="#121436" fill-opacity="1.00" shape-rendering="crispEdges"/><path d="M 40,109 41,101 49,88 Z" fill="#7F7471" fill-opacity="1.00" shape-rendering="crispEdges"/><path d="M 21,175 31,158 32,170 Z" fill="#A6A9A1" fill-opacity="1.00" shape-rendering="crispEdges"/><path d="M 31,158 32,170 35,170 Z" fill="#71767C" fill-opacity="1.00" shape-rendering="crispEdges"/><path d="M 188,66 197,60 206,76 Z" fill="#4C333A" fill-opacity="1.00" shape-rendering="crispEdges"/><path d="M 32,109 40,109 41,101 Z" fill="#9F9287" fill-opacity="1.00" shape-rendering="crispEdges"/><path d="M 43,144 50,119 53,120 Z" fill="#2E2530" fill-opacity="1.00" shape-rendering="crispEdges"/><path d="M 216,146 245,182 256,136 Z" fill="#131435" fill-opacity="1.00" shape-rendering="crispEdges"/></svg>